<?xml version="1.0" encoding="UTF-8" standalone="no"?>
<!-- Created with Inkscape (http://www.inkscape.org/) -->

<svg
   xmlns:dc="http://purl.org/dc/elements/1.1/"
   xmlns:cc="http://creativecommons.org/ns#"
   xmlns:rdf="http://www.w3.org/1999/02/22-rdf-syntax-ns#"
   xmlns:svg="http://www.w3.org/2000/svg"
   xmlns="http://www.w3.org/2000/svg"
   xmlns:sodipodi="http://sodipodi.sourceforge.net/DTD/sodipodi-0.dtd"
   xmlns:inkscape="http://www.inkscape.org/namespaces/inkscape"
   width="210mm"
   height="297mm"
   viewBox="0 0 744.09448819 1052.3622047"
   id="svg7855"
   version="1.1"
   inkscape:version="0.91 r13725"
   sodipodi:docname="banderines.svg">
  <defs
     id="defs7857">
    <filter
       inkscape:collect="always"
       style="color-interpolation-filters:sRGB"
       id="filter11226"
       x="-0.048104089"
       width="1.0962082"
       y="-0.020552371"
       height="1.0411047">
      <feGaussianBlur
         inkscape:collect="always"
         stdDeviation="4.2441695"
         id="feGaussianBlur11228" />
    </filter>
    <filter
       inkscape:collect="always"
       style="color-interpolation-filters:sRGB"
       id="filter11297"
       x="-0.264"
       width="1.528"
       y="-0.092319019"
       height="1.184638">
      <feGaussianBlur
         inkscape:collect="always"
         stdDeviation="9.4452714"
         id="feGaussianBlur11299" />
    </filter>
  </defs>
  <sodipodi:namedview
     id="base"
     pagecolor="#ffffff"
     bordercolor="#666666"
     borderopacity="1.0"
     inkscape:pageopacity="0.0"
     inkscape:pageshadow="2"
     inkscape:zoom="0.98994949"
     inkscape:cx="407.2051"
     inkscape:cy="914.45256"
     inkscape:document-units="px"
     inkscape:current-layer="layer1"
     showgrid="false"
     inkscape:window-width="1680"
     inkscape:window-height="998"
     inkscape:window-x="-8"
     inkscape:window-y="-8"
     inkscape:window-maximized="1" />
  <metadata
     id="metadata7860">
    <rdf:RDF>
      <cc:Work
         rdf:about="">
        <dc:format>image/svg+xml</dc:format>
        <dc:type
           rdf:resource="http://purl.org/dc/dcmitype/StillImage" />
        <dc:title></dc:title>
      </cc:Work>
    </rdf:RDF>
  </metadata>
  <g
     inkscape:label="Layer 1"
     inkscape:groupmode="layer"
     id="layer1">
    <rect
       style="opacity:1;fill:none;fill-opacity:1;stroke:none;stroke-width:0.24803628;stroke-linecap:square;stroke-linejoin:miter;stroke-miterlimit:4;stroke-dasharray:none;stroke-dashoffset:0;stroke-opacity:1"
       id="rect7291"
       width="136.89482"
       height="179.39059"
       x="42.957462"
       y="77.715363"
       ry="0"
       inkscape:export-xdpi="200"
       inkscape:export-ydpi="200" />
    <path
       sodipodi:nodetypes="csccccc"
       inkscape:connector-curvature="0"
       id="path11146"
       d="m 67.036483,112.37353 c 8.876623,-35.957037 26.252804,-1.6918 38.060247,-7.22196 17.64821,-8.265751 29.77663,-18.733328 52.53421,1.06421 -20.27047,2.67074 15.33589,35.45934 3.04943,56.12 -29.94256,-31.89515 -53.93663,11.71576 -63.047422,-3.39649 C 82.5988,134.66703 85.608472,172.9801 67.036483,162.54728 Z"
       style="opacity:1;fill:#000000;fill-opacity:1;stroke:none;stroke-width:20;stroke-linecap:square;stroke-linejoin:miter;stroke-miterlimit:4;stroke-dasharray:none;stroke-dashoffset:0;stroke-opacity:1"
       inkscape:export-xdpi="200"
       inkscape:export-ydpi="200" />
    <ellipse
       style="opacity:1;fill:#4d4d4d;fill-opacity:1;stroke:none;stroke-width:20;stroke-linecap:square;stroke-linejoin:miter;stroke-miterlimit:4;stroke-dasharray:none;stroke-dashoffset:0;stroke-opacity:1"
       id="path10766"
       cx="65.379219"
       cy="242.72343"
       rx="3.6704874"
       ry="0.9787966"
       inkscape:export-xdpi="200"
       inkscape:export-ydpi="200" />
    <ellipse
       ry="0.69331431"
       rx="3.0587394"
       cy="242.43796"
       cx="65.379219"
       id="ellipse10768"
       style="opacity:1;fill:#1a1a1a;fill-opacity:1;stroke:none;stroke-width:20;stroke-linecap:square;stroke-linejoin:miter;stroke-miterlimit:4;stroke-dasharray:none;stroke-dashoffset:0;stroke-opacity:1"
       inkscape:export-xdpi="200"
       inkscape:export-ydpi="200" />
    <rect
       style="opacity:1;fill:#000000;fill-opacity:1;stroke:none;stroke-width:20;stroke-linecap:square;stroke-linejoin:miter;stroke-miterlimit:4;stroke-dasharray:none;stroke-dashoffset:0;stroke-opacity:1"
       id="rect10756"
       width="3.5948927"
       height="134.86386"
       x="63.525791"
       y="107.68688"
       inkscape:export-xdpi="200"
       inkscape:export-ydpi="200" />
    <rect
       y="107.68688"
       x="64.073273"
       height="134.86386"
       width="1.2484556"
       id="rect10758"
       style="opacity:1;fill:#808080;fill-opacity:1;stroke:none;stroke-width:20;stroke-linecap:square;stroke-linejoin:miter;stroke-miterlimit:4;stroke-dasharray:none;stroke-dashoffset:0;stroke-opacity:1"
       inkscape:export-xdpi="200"
       inkscape:export-ydpi="200" />
    <path
       style="opacity:1;fill:#0055d4;fill-opacity:1;stroke:none;stroke-width:20;stroke-linecap:square;stroke-linejoin:miter;stroke-miterlimit:4;stroke-dasharray:none;stroke-dashoffset:0;stroke-opacity:1"
       d="m 68.951744,115.11016 c 8.19244,-30.755627 24.2294,-1.44707 35.126776,-6.17726 16.28797,-7.07006 28.91805,-20.093382 49.92159,-3.15968 -18.70814,2.2844 17.02677,36.07574 5.6873,53.74771 -27.63476,-27.28132 -54.08883,8.34514 -62.49743,-4.58103 -14.832991,-23.87344 -11.097664,12.00971 -28.238236,3.08607 z"
       id="rect10777"
       inkscape:connector-curvature="0"
       sodipodi:nodetypes="csccccc"
       inkscape:export-xdpi="200"
       inkscape:export-ydpi="200" />
    <path
       style="opacity:0.38200001;fill:#ffffff;fill-rule:evenodd;stroke:none;stroke-width:1px;stroke-linecap:butt;stroke-linejoin:miter;stroke-opacity:1;filter:url(#filter11226)"
       d="m 1262.1099,-480.19976 c 0,0 75.475,25.15834 75.475,48.22015 0,23.0618 -29.3514,119.50209 -29.3514,119.50209 l -2.0966,-71.28195 -20.9652,94.34376 44.027,88.05418 -44.027,46.12361 -27.2549,67.088897 -16.7722,33.544448 c 0,0 60.7993,-6.289584 100.6333,-58.702785 39.834,-52.4132 111.116,-79.66806 111.116,-79.66806 l -79.6681,-4.19306 46.1237,-100.63334 c 0,0 14.6756,35.64097 -14.6757,-35.64098 -29.3514,-71.28195 -25.1584,-127.88821 -25.1584,-127.88821 l 8.3861,-29.35139 27.2549,121.59863 23.0618,25.15833 -20.9653,-180.30141 c 0,0 -44.0271,-31.44791 -77.5715,-25.15833 -33.5445,6.28958 -77.5715,69.18542 -77.5715,69.18542 z"
       id="path11148"
       inkscape:connector-curvature="0"
       transform="matrix(0.11419294,0,0,0.11419294,-72.753491,163.90524)"
       inkscape:export-xdpi="200"
       inkscape:export-ydpi="200" />
    <path
       inkscape:connector-curvature="0"
       id="path11285"
       d="m 1754.7102,-510.32822 c 0,0 -61.6095,35.7033 -61.6095,58.76511 0,23.0618 12.8284,108.95713 12.8284,108.95713 l -44.2764,-60.73699 7.6568,91.33091 28.9628,137.76614 41.8391,-131.63429 7.3929,168.01923 c 71.8097,-7.08126 61.6608,5.04233 71.8097,-7.08126 39.834,-52.4132 221.0848,83.025607 221.0848,83.025607 l -17.9047,-139.771117 c -73.8865,-130.31612 -148.0131,-105.25161 -176.8269,-130.7618 0,0 14.6756,35.64097 -14.6757,-35.64098 -29.3514,-71.28195 -29.6777,-64.61845 -29.6777,-64.61845 l 15.9182,-36.8835 24.2421,65.86098 23.0618,25.15833 c -0.651,-97.2623 59.9016,-96.59874 95.0293,-136.61515 19.3855,-16.61614 -98.2013,-74.10712 -139.3349,-61.31248 -32.5889,10.1368 -65.5201,66.17258 -65.5201,66.17258 z"
       style="opacity:0.38200001;fill:#ffffff;fill-rule:evenodd;stroke:none;stroke-width:1px;stroke-linecap:butt;stroke-linejoin:miter;stroke-opacity:1;filter:url(#filter11226)"
       sodipodi:nodetypes="csccccccccccscccccsc"
       transform="matrix(0.11419294,0,0,0.11419294,-72.753491,163.90524)"
       inkscape:export-xdpi="200"
       inkscape:export-ydpi="200" />
    <path
       style="opacity:0.46700003;fill:#ffffff;fill-rule:evenodd;stroke:#000000;stroke-width:1px;stroke-linecap:butt;stroke-linejoin:miter;stroke-opacity:1;filter:url(#filter11297)"
       d="m 1480.8137,-481.17629 12.0514,188.30286 73.8147,57.24407 -46.6991,-159.68082 -4.5193,-76.82757 z"
       id="path11287"
       inkscape:connector-curvature="0"
       transform="matrix(0.11419294,0,0,0.11419294,-72.753491,163.90524)"
       inkscape:export-xdpi="200"
       inkscape:export-ydpi="200" />
    <rect
       ry="0"
       y="77.71537"
       x="180.1003"
       height="179.39059"
       width="136.89482"
       id="rect7293"
       style="opacity:1;fill:none;fill-opacity:1;stroke:none;stroke-width:0.24803628;stroke-linecap:square;stroke-linejoin:miter;stroke-miterlimit:4;stroke-dasharray:none;stroke-dashoffset:0;stroke-opacity:1"
       inkscape:export-xdpi="200"
       inkscape:export-ydpi="200" />
    <path
       style="opacity:1;fill:#000000;fill-opacity:1;stroke:none;stroke-width:20;stroke-linecap:square;stroke-linejoin:miter;stroke-miterlimit:4;stroke-dasharray:none;stroke-dashoffset:0;stroke-opacity:1"
       d="m 204.17934,112.37355 c 8.87663,-35.957043 36.38544,-7.81163 49.24833,-9.94339 18.85772,-3.125284 21.61236,-11.173819 45.27708,3.78564 -20.27046,2.67074 11.40494,35.45934 -0.88152,56.12 -29.94256,-31.89516 -45.1676,11.41338 -54.2784,-3.69888 -15.03414,-24.27226 -20.7935,14.34319 -39.36549,3.91038 z"
       id="path7295"
       inkscape:connector-curvature="0"
       sodipodi:nodetypes="csccccc"
       inkscape:export-xdpi="200"
       inkscape:export-ydpi="200" />
    <ellipse
       ry="0.9787966"
       rx="3.6704874"
       cy="242.72345"
       cx="202.52206"
       id="ellipse7297"
       style="opacity:1;fill:#4d4d4d;fill-opacity:1;stroke:none;stroke-width:20;stroke-linecap:square;stroke-linejoin:miter;stroke-miterlimit:4;stroke-dasharray:none;stroke-dashoffset:0;stroke-opacity:1"
       inkscape:export-xdpi="200"
       inkscape:export-ydpi="200" />
    <ellipse
       style="opacity:1;fill:#1a1a1a;fill-opacity:1;stroke:none;stroke-width:20;stroke-linecap:square;stroke-linejoin:miter;stroke-miterlimit:4;stroke-dasharray:none;stroke-dashoffset:0;stroke-opacity:1"
       id="ellipse7299"
       cx="202.52206"
       cy="242.43797"
       rx="3.0587394"
       ry="0.69331431"
       inkscape:export-xdpi="200"
       inkscape:export-ydpi="200" />
    <rect
       y="107.68689"
       x="200.66862"
       height="134.86386"
       width="3.5948927"
       id="rect7301"
       style="opacity:1;fill:#000000;fill-opacity:1;stroke:none;stroke-width:20;stroke-linecap:square;stroke-linejoin:miter;stroke-miterlimit:4;stroke-dasharray:none;stroke-dashoffset:0;stroke-opacity:1"
       inkscape:export-xdpi="200"
       inkscape:export-ydpi="200" />
    <rect
       style="opacity:1;fill:#808080;fill-opacity:1;stroke:none;stroke-width:20;stroke-linecap:square;stroke-linejoin:miter;stroke-miterlimit:4;stroke-dasharray:none;stroke-dashoffset:0;stroke-opacity:1"
       id="rect7303"
       width="1.2484556"
       height="134.86386"
       x="201.21611"
       y="107.68689"
       inkscape:export-xdpi="200"
       inkscape:export-ydpi="200" />
    <path
       sodipodi:nodetypes="csccccc"
       inkscape:connector-curvature="0"
       id="path7305"
       d="m 206.09461,115.11018 c 8.19243,-30.755634 37.53413,-3.86613 48.43151,-8.59631 16.28797,-7.070057 16.52046,-12.231491 36.61685,-0.74063 -18.70814,2.2844 17.02677,36.07573 5.6873,53.7477 -27.63476,-27.28132 -45.01742,8.34514 -53.42602,-4.58103 -14.83299,-23.87344 -20.16907,12.00972 -37.30964,3.08607 z"
       style="opacity:1;fill:#0055d4;fill-opacity:1;stroke:none;stroke-width:20;stroke-linecap:square;stroke-linejoin:miter;stroke-miterlimit:4;stroke-dasharray:none;stroke-dashoffset:0;stroke-opacity:1"
       inkscape:export-xdpi="200"
       inkscape:export-ydpi="200" />
    <path
       transform="matrix(0.11419294,0,0,0.11419294,64.389345,163.90526)"
       inkscape:connector-curvature="0"
       id="path7307"
       d="m 1262.1099,-480.19976 c 0,0 75.475,25.15834 75.475,48.22015 0,23.0618 -2.8716,127.44602 -2.8716,127.44602 l -28.5764,-79.22588 -20.9652,94.34376 44.027,88.05418 -44.027,46.12361 -27.2549,67.088897 -16.7722,33.544448 c 0,0 116.4068,-16.881497 156.2408,-69.294695 39.834,-52.4132 105.8201,-39.94839 105.8201,-39.94839 l -103.4999,-70.39252 46.1237,-74.15355 c 0,0 14.6756,35.64097 -14.6757,-35.64098 -29.3514,-71.28195 -51.6382,-117.2963 -51.6382,-117.2963 l 8.3861,-29.35139 53.7347,111.00672 23.0618,25.15833 -26.2613,-188.24535 c 0,0 -65.2109,-12.91206 -98.7553,-6.62248 -33.5445,6.28958 -77.5715,69.18542 -77.5715,69.18542 z"
       style="opacity:0.38200001;fill:#ffffff;fill-rule:evenodd;stroke:none;stroke-width:1px;stroke-linecap:butt;stroke-linejoin:miter;stroke-opacity:1;filter:url(#filter11226)"
       sodipodi:nodetypes="cscccccccscccscccccsc"
       inkscape:export-xdpi="200"
       inkscape:export-ydpi="200" />
    <path
       transform="matrix(0.11419294,0,0,0.11419294,64.389345,163.90526)"
       sodipodi:nodetypes="csccccccccccscccccsc"
       style="opacity:0.38200001;fill:#ffffff;fill-rule:evenodd;stroke:none;stroke-width:1px;stroke-linecap:butt;stroke-linejoin:miter;stroke-opacity:1;filter:url(#filter11226)"
       d="m 1754.7102,-510.32822 c 0,0 -109.2731,43.64723 -109.2731,66.70904 0,23.0618 12.8284,108.95713 12.8284,108.95713 l -44.2764,-60.73699 7.6568,91.33091 28.9628,137.76614 41.8391,-131.63429 7.3929,168.01923 c 71.8097,-7.08126 109.3244,-2.9016 119.4733,-15.02519 39.834,-52.4132 221.0848,83.025607 221.0848,83.025607 l -65.5683,-153.011007 c -73.8865,-130.31612 -100.3495,-92.01172 -129.1633,-117.52191 0,0 14.6756,35.64097 -14.6757,-35.64098 -29.3514,-71.28195 -29.6777,-64.61845 -29.6777,-64.61845 l 15.9182,-36.8835 24.2421,65.86098 23.0618,25.15833 c -0.651,-97.2623 54.6056,-80.71087 89.7333,-120.72728 19.3855,-16.61614 -87.6093,-68.81116 -128.7429,-56.01652 -32.5889,10.1368 -70.8161,44.98875 -70.8161,44.98875 z"
       id="path7309"
       inkscape:connector-curvature="0"
       inkscape:export-xdpi="200"
       inkscape:export-ydpi="200" />
    <path
       transform="matrix(0.11419294,0,0,0.11419294,64.389345,163.90526)"
       inkscape:connector-curvature="0"
       id="path7311"
       d="m 1480.8137,-481.17629 12.0514,188.30286 34.095,83.72385 -6.9794,-186.1606 -4.5193,-76.82757 z"
       style="opacity:0.46700003;fill:#ffffff;fill-rule:evenodd;stroke:#000000;stroke-width:1px;stroke-linecap:butt;stroke-linejoin:miter;stroke-opacity:1;filter:url(#filter11297)"
       sodipodi:nodetypes="cccccc"
       inkscape:export-xdpi="200"
       inkscape:export-ydpi="200" />
    <rect
       style="opacity:1;fill:none;fill-opacity:1;stroke:none;stroke-width:0.24803628;stroke-linecap:square;stroke-linejoin:miter;stroke-miterlimit:4;stroke-dasharray:none;stroke-dashoffset:0;stroke-opacity:1"
       id="rect7313"
       width="136.89482"
       height="179.39059"
       x="317.24316"
       y="77.71537"
       ry="0"
       inkscape:export-xdpi="200"
       inkscape:export-ydpi="200" />
    <path
       sodipodi:nodetypes="csccccc"
       inkscape:connector-curvature="0"
       id="path7315"
       d="m 341.32218,112.37355 c 8.87662,-35.957043 37.24119,-2.30228 49.04863,-7.83243 17.6482,-8.265755 19.65159,-6.899581 42.40917,6.42299 -20.27047,2.67074 1.95428,28.98437 4.3444,55.68834 -27.78423,-21.96687 -31.49004,0.92414 -42.75917,-7.71315 -15.03415,-24.27226 -34.47104,14.04081 -53.04303,3.608 z"
       style="opacity:1;fill:#000000;fill-opacity:1;stroke:none;stroke-width:20;stroke-linecap:square;stroke-linejoin:miter;stroke-miterlimit:4;stroke-dasharray:none;stroke-dashoffset:0;stroke-opacity:1"
       inkscape:export-xdpi="200"
       inkscape:export-ydpi="200" />
    <ellipse
       style="opacity:1;fill:#4d4d4d;fill-opacity:1;stroke:none;stroke-width:20;stroke-linecap:square;stroke-linejoin:miter;stroke-miterlimit:4;stroke-dasharray:none;stroke-dashoffset:0;stroke-opacity:1"
       id="ellipse7317"
       cx="339.66489"
       cy="242.72345"
       rx="3.6704874"
       ry="0.9787966"
       inkscape:export-xdpi="200"
       inkscape:export-ydpi="200" />
    <ellipse
       ry="0.69331431"
       rx="3.0587394"
       cy="242.43797"
       cx="339.66489"
       id="ellipse7319"
       style="opacity:1;fill:#1a1a1a;fill-opacity:1;stroke:none;stroke-width:20;stroke-linecap:square;stroke-linejoin:miter;stroke-miterlimit:4;stroke-dasharray:none;stroke-dashoffset:0;stroke-opacity:1"
       inkscape:export-xdpi="200"
       inkscape:export-ydpi="200" />
    <rect
       style="opacity:1;fill:#000000;fill-opacity:1;stroke:none;stroke-width:20;stroke-linecap:square;stroke-linejoin:miter;stroke-miterlimit:4;stroke-dasharray:none;stroke-dashoffset:0;stroke-opacity:1"
       id="rect7321"
       width="3.5948927"
       height="134.86386"
       x="337.81146"
       y="107.68689"
       inkscape:export-xdpi="200"
       inkscape:export-ydpi="200" />
    <rect
       y="107.68689"
       x="338.35895"
       height="134.86386"
       width="1.2484556"
       id="rect7323"
       style="opacity:1;fill:#808080;fill-opacity:1;stroke:none;stroke-width:20;stroke-linecap:square;stroke-linejoin:miter;stroke-miterlimit:4;stroke-dasharray:none;stroke-dashoffset:0;stroke-opacity:1"
       inkscape:export-xdpi="200"
       inkscape:export-ydpi="200" />
    <path
       style="opacity:1;fill:#0055d4;fill-opacity:1;stroke:none;stroke-width:20;stroke-linecap:square;stroke-linejoin:miter;stroke-miterlimit:4;stroke-dasharray:none;stroke-dashoffset:0;stroke-opacity:1"
       d="m 343.23744,115.81072 c 8.19244,-30.755635 32.78943,-5.54437 44.16323,-8.97426 20.59103,-6.20945 22.03314,-12.347856 43.03668,4.58585 -18.70814,2.2844 4.3327,34.3545 4.61152,52.02647 -27.63477,-27.28132 -30.42193,5.7633 -38.83053,-7.16287 -14.83299,-23.87344 -35.84033,11.36426 -52.9809,2.44061 z"
       id="path7325"
       inkscape:connector-curvature="0"
       sodipodi:nodetypes="csccccc"
       inkscape:export-xdpi="200"
       inkscape:export-ydpi="200" />
    <path
       style="opacity:0.38200001;fill:#ffffff;fill-rule:evenodd;stroke:none;stroke-width:1px;stroke-linecap:butt;stroke-linejoin:miter;stroke-opacity:1;filter:url(#filter11226)"
       d="m 1262.1099,-480.19976 c 0,0 75.475,25.15834 75.475,48.22015 0,23.0618 36.5929,142.11158 36.5929,142.11158 l -68.0409,-93.89144 -20.9652,94.34376 44.027,88.05418 -44.027,46.12361 -27.2549,67.088897 -16.7722,33.544448 c 0,0 60.7993,-6.289584 100.6333,-58.702785 39.834,-52.4132 286.3395,-41.98558 286.3395,-41.98558 l -123.0029,-43.75966 -6.6318,-98.74922 c 0,0 -4.1656,35.64097 -33.5169,-35.64098 -29.3514,-71.28195 -85.4504,-127.88821 -85.4504,-127.88821 l 8.3861,-29.35139 110.1564,104.64151 56.976,51.53607 -137.781,-189.72203 c 0,0 -44.0271,-31.44791 -77.5715,-25.15833 -33.5445,6.28958 -77.5715,69.18542 -77.5715,69.18542 z"
       id="path7327"
       inkscape:connector-curvature="0"
       transform="matrix(0.11419294,0,0,0.11419294,201.53218,164.6058)"
       sodipodi:nodetypes="cscccccccscccscccccsc"
       inkscape:export-xdpi="200"
       inkscape:export-ydpi="200" />
    <path
       inkscape:connector-curvature="0"
       id="path7329"
       d="m 1754.7102,-510.32822 c 0,0 -61.6095,35.7033 -61.6095,58.76511 0,23.0618 107.0346,125.91425 107.0346,125.91425 l -76.3065,-68.27349 39.6869,98.86741 -3.0673,130.22964 73.8692,-124.09779 -41.5943,171.78747 c 71.8097,-7.08126 46.5878,-6.26241 56.7367,-18.386 39.834,-52.4132 179.6341,90.562103 179.6341,90.562103 L 1986.6957,-197.9195 c -73.8865,-130.31612 -50.0386,-99.59924 -78.8524,-125.10943 0,0 14.6756,35.64097 -14.6757,-35.64098 -29.3514,-71.28195 -29.6777,-64.61845 -29.6777,-64.61845 l -46.2579,-46.30412 86.4182,75.2816 23.0618,25.15833 c -0.651,-97.2623 -2.2745,-68.33688 32.8532,-108.35329 19.3855,-16.61614 -98.2013,-74.10712 -139.3349,-61.31248 -32.5889,10.1368 -65.5201,28.4901 -65.5201,28.4901 z"
       style="opacity:0.38200001;fill:#ffffff;fill-rule:evenodd;stroke:none;stroke-width:1px;stroke-linecap:butt;stroke-linejoin:miter;stroke-opacity:1;filter:url(#filter11226)"
       sodipodi:nodetypes="csccccccccccscccccsc"
       transform="matrix(0.11419294,0,0,0.11419294,201.53218,164.6058)"
       inkscape:export-xdpi="200"
       inkscape:export-ydpi="200" />
    <path
       style="opacity:0.46700003;fill:#ffffff;fill-rule:evenodd;stroke:#000000;stroke-width:1px;stroke-linecap:butt;stroke-linejoin:miter;stroke-opacity:1;filter:url(#filter11297)"
       d="m 1480.8137,-481.17629 12.0514,188.30286 73.8147,57.24407 -46.6991,-159.68082 -4.5193,-76.82757 z"
       id="path7331"
       inkscape:connector-curvature="0"
       transform="matrix(0.11419294,0,0,0.11419294,210.78379,167.18764)"
       inkscape:export-xdpi="200"
       inkscape:export-ydpi="200" />
    <rect
       ry="0"
       y="77.71537"
       x="454.38602"
       height="179.39059"
       width="136.89482"
       id="rect7333"
       style="opacity:1;fill:none;fill-opacity:1;stroke:none;stroke-width:0.24803628;stroke-linecap:square;stroke-linejoin:miter;stroke-miterlimit:4;stroke-dasharray:none;stroke-dashoffset:0;stroke-opacity:1"
       inkscape:export-xdpi="200"
       inkscape:export-ydpi="200" />
    <path
       style="opacity:1;fill:#000000;fill-opacity:1;stroke:none;stroke-width:20;stroke-linecap:square;stroke-linejoin:miter;stroke-miterlimit:4;stroke-dasharray:none;stroke-dashoffset:0;stroke-opacity:1"
       d="m 478.46503,112.37355 c 16.20223,-23.74772 18.31674,-2.30228 30.12418,-7.83243 17.6482,-8.265755 32.82897,-8.965872 56.80748,1.67468 15.13656,9.38587 -8.4723,43.3954 13.42737,52.4572 -39.71004,-9.3079 -56.37853,16.59949 -69.76256,3.9291 -19.91786,-15.72573 -12.02448,10.37801 -30.59647,-0.0548 z"
       id="path7335"
       inkscape:connector-curvature="0"
       sodipodi:nodetypes="csccccc"
       inkscape:export-xdpi="200"
       inkscape:export-ydpi="200" />
    <ellipse
       ry="0.9787966"
       rx="3.6704874"
       cy="242.72345"
       cx="476.80774"
       id="ellipse7337"
       style="opacity:1;fill:#4d4d4d;fill-opacity:1;stroke:none;stroke-width:20;stroke-linecap:square;stroke-linejoin:miter;stroke-miterlimit:4;stroke-dasharray:none;stroke-dashoffset:0;stroke-opacity:1"
       inkscape:export-xdpi="200"
       inkscape:export-ydpi="200" />
    <ellipse
       style="opacity:1;fill:#1a1a1a;fill-opacity:1;stroke:none;stroke-width:20;stroke-linecap:square;stroke-linejoin:miter;stroke-miterlimit:4;stroke-dasharray:none;stroke-dashoffset:0;stroke-opacity:1"
       id="ellipse7339"
       cx="476.80774"
       cy="242.43797"
       rx="3.0587394"
       ry="0.69331431"
       inkscape:export-xdpi="200"
       inkscape:export-ydpi="200" />
    <rect
       y="107.68689"
       x="474.95432"
       height="134.86386"
       width="3.5948927"
       id="rect7341"
       style="opacity:1;fill:#000000;fill-opacity:1;stroke:none;stroke-width:20;stroke-linecap:square;stroke-linejoin:miter;stroke-miterlimit:4;stroke-dasharray:none;stroke-dashoffset:0;stroke-opacity:1"
       inkscape:export-xdpi="200"
       inkscape:export-ydpi="200" />
    <rect
       style="opacity:1;fill:#808080;fill-opacity:1;stroke:none;stroke-width:20;stroke-linecap:square;stroke-linejoin:miter;stroke-miterlimit:4;stroke-dasharray:none;stroke-dashoffset:0;stroke-opacity:1"
       id="rect7343"
       width="1.2484556"
       height="134.86386"
       x="475.5018"
       y="107.68689"
       inkscape:export-xdpi="200"
       inkscape:export-ydpi="200" />
    <path
       sodipodi:nodetypes="csccccc"
       inkscape:connector-curvature="0"
       id="path7345"
       d="m 480.38029,118.18956 c 8.19244,-30.755631 16.59914,-6.658 27.49651,-11.38818 16.28797,-7.070058 36.54832,-14.882467 57.55186,2.05124 8.27697,11.40351 -2.88637,41.28665 8.10664,47.97847 -26.89033,-14.22488 -54.08882,17.58878 -62.49743,4.16587 -24.8826,-19.40694 -13.51701,9.03205 -30.65758,0.10841 z"
       style="opacity:1;fill:#0055d4;fill-opacity:1;stroke:none;stroke-width:20;stroke-linecap:square;stroke-linejoin:miter;stroke-miterlimit:4;stroke-dasharray:none;stroke-dashoffset:0;stroke-opacity:1"
       inkscape:export-xdpi="200"
       inkscape:export-ydpi="200" />
    <path
       transform="matrix(0.11419294,0,0,0.11419294,338.67503,166.98464)"
       inkscape:connector-curvature="0"
       id="path7347"
       d="m 1262.1099,-480.19976 c 0,0 75.475,25.15834 75.475,48.22015 0,23.0618 -1.6459,126.02103 -1.6459,126.02103 l -2.0966,-71.28195 -20.9652,94.34376 34.2486,86.42444 -44.027,46.12361 -45.182,62.199697 -16.7722,33.544448 c 0,0 60.7993,-6.289584 100.6333,-58.702785 39.834,-52.4132 142.081,-51.96257 142.081,-51.96257 l -79.6681,-4.19306 46.1237,-100.63334 c 0,0 14.6756,35.64097 -14.6757,-35.64098 -29.3514,-71.28195 -25.1584,-127.88821 -25.1584,-127.88821 l 8.3861,-29.35139 27.2549,121.59863 23.0618,25.15833 -51.9303,-208.0069 c 0,0 -44.0271,-31.44791 -77.5715,-25.15833 -33.5445,6.28958 -77.5715,69.18542 -77.5715,69.18542 z"
       style="opacity:0.38200001;fill:#ffffff;fill-rule:evenodd;stroke:none;stroke-width:1px;stroke-linecap:butt;stroke-linejoin:miter;stroke-opacity:1;filter:url(#filter11226)"
       sodipodi:nodetypes="cscccccccscccscccccsc"
       inkscape:export-xdpi="200"
       inkscape:export-ydpi="200" />
    <path
       transform="matrix(0.13278609,0,0,0.11371889,300.53655,166.83288)"
       sodipodi:nodetypes="csccccccccccscccccsc"
       style="opacity:0.38200001;fill:#ffffff;fill-rule:evenodd;stroke:none;stroke-width:1px;stroke-linecap:butt;stroke-linejoin:miter;stroke-opacity:1;filter:url(#filter11226)"
       d="m 1813.5746,-511.96475 c 0,0 -61.6095,35.7033 -61.6095,58.76511 0,23.0618 12.8284,108.95713 12.8284,108.95713 l -44.2764,-60.73699 7.6568,91.33091 -29.9016,139.40267 100.7035,-133.27082 -51.4715,169.65576 c 71.8097,-7.08126 61.6608,5.04233 71.8097,-7.08126 39.834,-52.4132 202.8649,32.29322 202.8649,32.29322 l -58.5492,-89.03873 c -73.8865,-130.31612 -89.1487,-105.25161 -117.9625,-130.7618 0,0 14.6756,35.64097 -14.6757,-35.64098 -29.3514,-71.28195 -29.6777,-64.61845 -29.6777,-64.61845 l 15.9182,-36.8835 24.2421,65.86098 23.0618,25.15833 c -0.651,-97.2623 59.9016,-96.59874 95.0293,-136.61515 19.3855,-16.61614 -98.2013,-74.10712 -139.3349,-61.31248 -32.5889,10.1368 -6.6557,64.53605 -6.6557,64.53605 z"
       id="path7349"
       inkscape:connector-curvature="0"
       inkscape:export-xdpi="200"
       inkscape:export-ydpi="200" />
    <path
       transform="matrix(0.11419294,0,0,0.11419294,341.83881,177.96479)"
       inkscape:connector-curvature="0"
       id="path7351"
       d="m 1480.8137,-481.17629 12.0514,188.30286 73.8147,57.24407 -46.6991,-159.68082 -4.5193,-76.82757 z"
       style="opacity:0.46700003;fill:#ffffff;fill-rule:evenodd;stroke:#000000;stroke-width:1px;stroke-linecap:butt;stroke-linejoin:miter;stroke-opacity:1;filter:url(#filter11297)"
       inkscape:export-xdpi="200"
       inkscape:export-ydpi="200" />
    <rect
       style="opacity:1;fill:none;fill-opacity:1;stroke:none;stroke-width:0.24803628;stroke-linecap:square;stroke-linejoin:miter;stroke-miterlimit:4;stroke-dasharray:none;stroke-dashoffset:0;stroke-opacity:1"
       id="rect7353"
       width="136.89482"
       height="179.39059"
       x="591.52887"
       y="77.71537"
       ry="0"
       inkscape:export-xdpi="200"
       inkscape:export-ydpi="200" />
    <path
       sodipodi:nodetypes="csccccc"
       inkscape:connector-curvature="0"
       id="path7355"
       d="m 615.60789,112.37355 c 8.87662,-35.957043 29.30513,1.97099 41.11258,-3.55917 17.6482,-8.26575 30.3871,-20.564727 53.14467,-0.76719 -12.33442,14.2696 3.73702,31.79655 2.43897,55.50954 -29.94257,-28.84282 -47.83196,11.71576 -56.94276,-3.39649 -23.58068,-17.55714 -21.18148,12.81987 -39.75346,2.38706 z"
       style="opacity:1;fill:#000000;fill-opacity:1;stroke:none;stroke-width:20;stroke-linecap:square;stroke-linejoin:miter;stroke-miterlimit:4;stroke-dasharray:none;stroke-dashoffset:0;stroke-opacity:1"
       inkscape:export-xdpi="200"
       inkscape:export-ydpi="200" />
    <ellipse
       style="opacity:1;fill:#4d4d4d;fill-opacity:1;stroke:none;stroke-width:20;stroke-linecap:square;stroke-linejoin:miter;stroke-miterlimit:4;stroke-dasharray:none;stroke-dashoffset:0;stroke-opacity:1"
       id="ellipse7357"
       cx="613.95062"
       cy="242.72345"
       rx="3.6704874"
       ry="0.9787966"
       inkscape:export-xdpi="200"
       inkscape:export-ydpi="200" />
    <ellipse
       ry="0.69331431"
       rx="3.0587394"
       cy="242.43797"
       cx="613.95062"
       id="ellipse7359"
       style="opacity:1;fill:#1a1a1a;fill-opacity:1;stroke:none;stroke-width:20;stroke-linecap:square;stroke-linejoin:miter;stroke-miterlimit:4;stroke-dasharray:none;stroke-dashoffset:0;stroke-opacity:1"
       inkscape:export-xdpi="200"
       inkscape:export-ydpi="200" />
    <rect
       style="opacity:1;fill:#000000;fill-opacity:1;stroke:none;stroke-width:20;stroke-linecap:square;stroke-linejoin:miter;stroke-miterlimit:4;stroke-dasharray:none;stroke-dashoffset:0;stroke-opacity:1"
       id="rect7361"
       width="3.5948927"
       height="134.86386"
       x="612.09717"
       y="107.68689"
       inkscape:export-xdpi="200"
       inkscape:export-ydpi="200" />
    <rect
       y="107.68689"
       x="612.64465"
       height="134.86386"
       width="1.2484556"
       id="rect7363"
       style="opacity:1;fill:#808080;fill-opacity:1;stroke:none;stroke-width:20;stroke-linecap:square;stroke-linejoin:miter;stroke-miterlimit:4;stroke-dasharray:none;stroke-dashoffset:0;stroke-opacity:1"
       inkscape:export-xdpi="200"
       inkscape:export-ydpi="200" />
    <path
       style="opacity:1;fill:#0055d4;fill-opacity:1;stroke:none;stroke-width:20;stroke-linecap:square;stroke-linejoin:miter;stroke-miterlimit:4;stroke-dasharray:none;stroke-dashoffset:0;stroke-opacity:1"
       d="m 617.52315,113.94 c 8.19244,-30.755632 28.13758,0.97228 39.03495,-3.75791 16.28798,-7.07006 29.66249,-18.790653 50.66603,-1.85695 -14.24165,23.12808 8.46597,32.35365 3.45403,51.88667 -27.63477,-27.28133 -46.83076,12.25332 -55.23937,-0.67285 -14.83299,-23.87344 -20.77507,9.40426 -37.91564,0.48062 z"
       id="path7365"
       inkscape:connector-curvature="0"
       sodipodi:nodetypes="csccccc"
       inkscape:export-xdpi="200"
       inkscape:export-ydpi="200" />
    <path
       style="opacity:0.38200001;fill:#ffffff;fill-rule:evenodd;stroke:none;stroke-width:1px;stroke-linecap:butt;stroke-linejoin:miter;stroke-opacity:1;filter:url(#filter11226)"
       d="m 1262.1099,-480.19976 c 0,0 75.475,25.15834 75.475,48.22015 0,23.0618 26.0596,122.76156 26.0596,122.76156 l -57.5076,-74.54142 34.4458,97.60323 92.919,71.75683 -44.027,46.12361 -27.2549,67.0889 -16.7722,33.544446 c 0,0 60.7993,-6.289584 100.6333,-58.702786 39.834,-52.4132 107.8565,40.932321 107.8565,40.932321 l -76.4086,-124.793441 -58.1793,-87.59546 c 0,0 14.6756,35.64097 -14.6757,-35.64098 -29.3514,-71.28195 -25.1584,-127.88821 -25.1584,-127.88821 l 8.3861,-29.35139 27.2549,121.59863 44.2484,105.01534 -42.1519,-260.15842 c 0,0 -44.0271,-31.44791 -77.5715,-25.15833 -33.5445,6.28958 -77.5715,69.18542 -77.5715,69.18542 z"
       id="path7367"
       inkscape:connector-curvature="0"
       transform="matrix(0.11419294,0,0,0.11419294,476.37619,163.85171)"
       sodipodi:nodetypes="cscccccccscccscccccsc"
       inkscape:export-xdpi="200"
       inkscape:export-ydpi="200" />
    <path
       inkscape:connector-curvature="0"
       id="path7369"
       d="m 1754.7102,-510.32822 c 0,0 -38.7932,32.44383 -38.7932,55.50564 0,23.0618 12.8284,108.95713 12.8284,108.95713 l -44.2764,-60.73699 7.6568,91.33091 28.9628,137.76614 41.8391,-131.63429 7.3929,168.01923 c 71.8097,-7.08126 38.8445,8.3018 48.9934,-3.82179 39.834,-52.4132 221.0848,83.025607 221.0848,83.025607 l -17.9047,-139.771117 c -73.8865,-130.31612 -90.9724,-115.03002 -119.7862,-140.54021 0,0 -42.3651,45.41938 -71.7164,-25.86257 -29.3514,-71.28195 -29.6777,-64.61845 -29.6777,-64.61845 l 15.9182,-36.8835 24.2421,65.86098 23.0618,25.15833 c -0.651,-97.2623 59.9016,-96.59874 95.0293,-136.61515 19.3855,-16.61614 -98.2013,-74.10712 -139.3349,-61.31248 -32.5889,10.1368 -65.5201,66.17258 -65.5201,66.17258 z"
       style="opacity:0.38200001;fill:#ffffff;fill-rule:evenodd;stroke:none;stroke-width:1px;stroke-linecap:butt;stroke-linejoin:miter;stroke-opacity:1;filter:url(#filter11226)"
       sodipodi:nodetypes="csccccccccccscccccsc"
       transform="matrix(0.11419294,0,0,0.11419294,475.81789,165.89885)"
       inkscape:export-xdpi="200"
       inkscape:export-ydpi="200" />
    <path
       style="opacity:0.46700003;fill:#ffffff;fill-rule:evenodd;stroke:#000000;stroke-width:1px;stroke-linecap:butt;stroke-linejoin:miter;stroke-opacity:1;filter:url(#filter11297)"
       d="m 1480.8137,-481.17629 12.0514,188.30286 73.8147,57.24407 -46.6991,-159.68082 -4.5193,-76.82757 z"
       id="path7371"
       inkscape:connector-curvature="0"
       transform="matrix(0.06029406,0,0,0.11959822,568.18186,181.79393)"
       sodipodi:nodetypes="cccccc"
       inkscape:export-xdpi="200"
       inkscape:export-ydpi="200" />
  </g>
</svg>
