<?xml version="1.0" encoding="UTF-8" standalone="no"?>
<!-- Created with Inkscape (http://www.inkscape.org/) -->

<svg
   xmlns:dc="http://purl.org/dc/elements/1.1/"
   xmlns:cc="http://creativecommons.org/ns#"
   xmlns:rdf="http://www.w3.org/1999/02/22-rdf-syntax-ns#"
   xmlns:svg="http://www.w3.org/2000/svg"
   xmlns="http://www.w3.org/2000/svg"
   xmlns:sodipodi="http://sodipodi.sourceforge.net/DTD/sodipodi-0.dtd"
   xmlns:inkscape="http://www.inkscape.org/namespaces/inkscape"
   width="210mm"
   height="297mm"
   viewBox="0 0 744.09448819 1052.3622047"
   id="svg5660"
   version="1.1"
   inkscape:version="0.91 r13725"
   sodipodi:docname="logo.svg">
  <defs
     id="defs5662" />
  <sodipodi:namedview
     id="base"
     pagecolor="#ffffff"
     bordercolor="#666666"
     borderopacity="1.0"
     inkscape:pageopacity="0.0"
     inkscape:pageshadow="2"
     inkscape:zoom="0.35"
     inkscape:cx="599.28571"
     inkscape:cy="485.71429"
     inkscape:document-units="px"
     inkscape:current-layer="layer1"
     showgrid="false"
     inkscape:window-width="1280"
     inkscape:window-height="716"
     inkscape:window-x="-8"
     inkscape:window-y="-8"
     inkscape:window-maximized="1" />
  <metadata
     id="metadata5665">
    <rdf:RDF>
      <cc:Work
         rdf:about="">
        <dc:format>image/svg+xml</dc:format>
        <dc:type
           rdf:resource="http://purl.org/dc/dcmitype/StillImage" />
        <dc:title></dc:title>
      </cc:Work>
    </rdf:RDF>
  </metadata>
  <g
     inkscape:label="Layer 1"
     inkscape:groupmode="layer"
     id="layer1">
    <g
       transform="matrix(0.81753101,0,0,0.81753101,999.49894,-169.01118)"
       id="g5615">
      <rect
         inkscape:export-ydpi="105.897"
         inkscape:export-xdpi="105.897"
         ry="0"
         y="448.70947"
         x="-1125.2842"
         height="334.96545"
         width="728.04236"
         id="rect3796"
         style="opacity:1;fill:#ffffff;fill-opacity:1;stroke:#4d4d4d;stroke-width:23.55307579;stroke-linecap:square;stroke-linejoin:miter;stroke-miterlimit:4;stroke-dasharray:none;stroke-dashoffset:0;stroke-opacity:1" />
      <text
         inkscape:export-ydpi="105.897"
         inkscape:export-xdpi="105.897"
         transform="scale(0.85690986,1.1669839)"
         sodipodi:linespacing="100%"
         id="text3798"
         y="460.4733"
         x="-899.2171"
         style="font-style:normal;font-variant:normal;font-weight:bold;font-stretch:normal;font-size:48.19028854px;line-height:100%;font-family:Raavi;-inkscape-font-specification:'Raavi, Bold';text-align:center;letter-spacing:0px;word-spacing:0px;writing-mode:lr-tb;text-anchor:middle;fill:#666666;fill-opacity:1;stroke:none;stroke-width:1px;stroke-linecap:butt;stroke-linejoin:miter;stroke-opacity:1"
         xml:space="preserve"><tspan
           y="460.4733"
           x="-899.2171"
           id="tspan3800"
           sodipodi:role="line">DIGITAL &amp; BUSINESS MODEL</tspan><tspan
           id="tspan3802"
           y="508.66357"
           x="-899.2171"
           sodipodi:role="line">TRANSFORMATION</tspan></text>
      <text
         inkscape:export-ydpi="105.897"
         inkscape:export-xdpi="105.897"
         transform="scale(0.84291297,1.1863621)"
         sodipodi:linespacing="100%"
         id="text3798-2"
         y="606.922"
         x="-924.50812"
         style="font-style:normal;font-variant:normal;font-weight:bold;font-stretch:normal;font-size:106.05656433px;line-height:100%;font-family:Raavi;-inkscape-font-specification:'Raavi, Bold';text-align:center;letter-spacing:0px;word-spacing:0px;writing-mode:lr-tb;text-anchor:middle;fill:#666666;fill-opacity:1;stroke:none;stroke-width:1px;stroke-linecap:butt;stroke-linejoin:miter;stroke-opacity:1"
         xml:space="preserve"><tspan
           id="tspan3802-8"
           y="606.922"
           x="-924.50812"
           sodipodi:role="line">THE ROADMAP</tspan></text>
      <text
         inkscape:export-ydpi="105.897"
         inkscape:export-xdpi="105.897"
         transform="scale(0.99416662,1.0058676)"
         sodipodi:linespacing="125%"
         id="text3827"
         y="661.43677"
         x="-470.6915"
         style="font-style:normal;font-weight:normal;font-size:28.39743423px;line-height:125%;font-family:sans-serif;letter-spacing:0px;word-spacing:0px;fill:#000000;fill-opacity:1;stroke:none;stroke-width:1px;stroke-linecap:butt;stroke-linejoin:miter;stroke-opacity:1"
         xml:space="preserve"><tspan
           y="661.43677"
           x="-470.6915"
           id="tspan3829"
           sodipodi:role="line">TM</tspan></text>
      <circle
         inkscape:export-ydpi="105.897"
         inkscape:export-xdpi="105.897"
         r="90.108994"
         cy="379.7384"
         cx="-761.26294"
         id="path3831"
         style="opacity:1;fill:#ffffff;fill-opacity:1;stroke:#4d4d4d;stroke-width:16.40402412;stroke-linecap:square;stroke-linejoin:miter;stroke-miterlimit:4;stroke-dasharray:none;stroke-dashoffset:0;stroke-opacity:1" />
      <g
         inkscape:export-ydpi="105.897"
         inkscape:export-xdpi="105.897"
         transform="matrix(2.7709501,0,0,2.7709501,-2133.9422,135.19259)"
         id="g3887">
        <rect
           style="opacity:1;fill:#4d4d4d;fill-opacity:1;stroke:none;stroke-width:5.92000008;stroke-linecap:square;stroke-linejoin:miter;stroke-miterlimit:4;stroke-dasharray:none;stroke-dashoffset:0;stroke-opacity:1"
           id="rect3833"
           width="23.443026"
           height="10.480412"
           x="484.46323"
           y="101.40276" />
        <path
           style="fill:#ffcc00;fill-rule:evenodd;stroke:none;stroke-width:1px;stroke-linecap:butt;stroke-linejoin:miter;stroke-opacity:1"
           d="m 496.42332,101.4383 0,-35.164541 -11.30088,0 -0.2758,1.930602 c 0,0 -7.03984,2.068502 -6.35033,10.066711 0.55516,6.439793 4.56743,10.641971 8.15283,13.124174 3.58541,2.482203 5.63718,2.872244 5.63718,2.872244 l -0.2758,-0.689501 c 0,0 -5.65391,-1.792702 -8.82561,-6.895008 -2.88006,-4.633142 -3.11152,-7.100534 -2.80819,-9.44126 0.7386,-5.699651 3.77349,-5.451956 3.77349,-5.451956 0,0 -0.31619,1.792702 0.75499,2.076867 0.81076,0.215084 1.17561,0.819036 1.17561,0.819036 0,0 0.2758,7.722409 3.03381,10.894112 2.758,3.171704 4.6886,4.274905 4.6886,4.274905 0,0 1.44795,1.241102 0.5516,2.620103 -0.6465,0.994614 -1.45834,1.305151 -2.14928,2.741273 -0.54139,1.125277 0.33292,2.556052 0.33292,2.556052 0,0 -3.27221,0.79146 -4.11334,1.321882 -1.8025,1.136665 -2.75801,2.344305 -2.75801,2.344305 z"
           id="path3835"
           inkscape:connector-curvature="0"
           sodipodi:nodetypes="ccccssccsscscscsscscc" />
        <path
           style="fill:#d4aa00;fill-rule:evenodd;stroke:none;stroke-width:1px;stroke-linecap:butt;stroke-linejoin:miter;stroke-opacity:1"
           d="m 496.21272,101.4383 0,-35.16454 11.30088,0 0.2758,1.9306 c 0,0 7.03984,2.0685 6.35033,10.06671 -0.55516,6.43979 -4.56743,10.64197 -8.15283,13.12417 -3.58541,2.48221 -5.63718,2.87225 -5.63718,2.87225 l 0.2758,-0.6895 c 0,0 5.65391,-1.79271 8.82561,-6.89501 2.88006,-4.63314 3.11152,-7.10054 2.80819,-9.44126 -0.7386,-5.69965 -3.77349,-5.45196 -3.77349,-5.45196 0,0 0.31619,1.7927 -0.75499,2.07687 -0.81076,0.21508 -1.17561,0.81904 -1.17561,0.81904 0,0 -0.2758,7.7224 -3.03381,10.89411 -2.758,3.1717 -4.6886,4.2749 -4.6886,4.2749 0,0 -1.44795,1.2411 -0.5516,2.62011 0.6465,0.99461 1.45834,1.30515 2.14928,2.74127 0.54139,1.12528 -0.33292,2.55605 -0.33292,2.55605 0,0 3.27221,0.79146 4.11334,1.32188 1.8025,1.13667 2.75801,2.34431 2.75801,2.34431 z"
           id="path3835-9"
           inkscape:connector-curvature="0"
           sodipodi:nodetypes="ccccssccsscscscsscscc" />
        <ellipse
           style="opacity:1;fill:#ffffff;fill-opacity:1;stroke:none;stroke-width:5.92000008;stroke-linecap:square;stroke-linejoin:miter;stroke-miterlimit:4;stroke-dasharray:none;stroke-dashoffset:0;stroke-opacity:1"
           id="path3852"
           cx="498.17929"
           cy="96.226601"
           rx="1.1701216"
           ry="0.63381588" />
        <ellipse
           style="opacity:1;fill:#ffffff;fill-opacity:1;stroke:none;stroke-width:5.92000008;stroke-linecap:square;stroke-linejoin:miter;stroke-miterlimit:4;stroke-dasharray:none;stroke-dashoffset:0;stroke-opacity:1"
           id="path3852-9"
           cx="493.98633"
           cy="96.080338"
           rx="1.1701216"
           ry="0.63381588" />
        <path
           style="opacity:1;fill:#d4aa00;fill-opacity:1;stroke:none;stroke-width:5.92000008;stroke-linecap:square;stroke-linejoin:miter;stroke-miterlimit:4;stroke-dasharray:none;stroke-dashoffset:0;stroke-opacity:1"
           d="m 493.98635,103.58862 2.24273,0 0,6.04563 -2.24273,0 c -1.67464,0 -3.02282,-1.34817 -3.02282,-3.02281 0,-1.67464 1.34818,-3.02282 3.02282,-3.02282 z"
           id="rect3869"
           inkscape:connector-curvature="0"
           sodipodi:nodetypes="sccsss" />
        <path
           style="opacity:1;fill:#aa8800;fill-opacity:1;stroke:none;stroke-width:5.92000008;stroke-linecap:square;stroke-linejoin:miter;stroke-miterlimit:4;stroke-dasharray:none;stroke-dashoffset:0;stroke-opacity:1"
           d="m 498.47179,103.58861 -2.24273,0 0,6.04563 2.24273,0 c 1.67464,0 3.02282,-1.34817 3.02282,-3.02281 0,-1.67464 -1.34818,-3.02282 -3.02282,-3.02282 z"
           id="rect3869-6"
           inkscape:connector-curvature="0"
           sodipodi:nodetypes="sccsss" />
      </g>
    </g>
  </g>
</svg>
